<svg width="160" height="160" viewBox="0 0 160 160" fill="none" xmlns="http://www.w3.org/2000/svg">
<path d="M46 54H104C111.732 54 118 60.268 118 68V94C118 109.911 104.911 123 89 123H61C52.1634 123 45 115.837 45 107V63C45 58.5817 48.5817 55 53 55C61 55 62 54 62 54Z" fill="#F2E8D5" stroke="#A07E5B" stroke-width="6"/>
<path d="M104 70H122C127.523 70 132 74.4772 132 80C132 85.5228 127.523 90 122 90H118" stroke="#A07E5B" stroke-width="8"/>
<path d="M68 38C68 38 72 34 72 28" stroke="#A07E5B" stroke-width="8" stroke-linecap="round"/>
<path d="M86 38C86 38 90 34 90 28" stroke="#A07E5B" stroke-width="8" stroke-linecap="round"/>
<path d="M77 42C77 42 81 38 81 32" stroke="#A07E5B" stroke-width="8" stroke-linecap="round"/>
</svg>
